HIERARCHY
ROOT root
{
	OFFSET 0.000000 0.000000 0.000000
	CHANNELS 6 Xposition Yposition Zposition Zrotation Yrotation Xrotation
	JOINT lhip
	{
		OFFSET 0.058581 -0.082280 -0.017664
		CHANNELS 3 Zrotation Yrotation Xrotation
		JOINT lknee
		{
			OFFSET 0.043451 -0.386469 0.008037
			CHANNELS 3 Zrotation Yrotation Xrotation
			JOINT lankle
			{
				OFFSET -0.014790 -0.426874 -0.037428
				CHANNELS 3 Zrotation Yrotation Xrotation
				JOINT ltoe
				{
					OFFSET 0.041054 -0.060286 0.122042
					CHANNELS 3 Zrotation Yrotation Xrotation
					End Site
					{
						OFFSET 0.000000 0.000000 0.000000
					}
				}
			}
		}
	}
	JOINT rhip
	{
		OFFSET -0.060310 -0.090513 -0.013543
		CHANNELS 3 Zrotation Yrotation Xrotation
		JOINT rknee
		{
			OFFSET -0.043257 -0.383688 -0.004843
			CHANNELS 3 Zrotation Yrotation Xrotation
			JOINT rankle
			{
				OFFSET 0.019056 -0.420046 -0.034562
				CHANNELS 3 Zrotation Yrotation Xrotation
				JOINT rtoe
				{
					OFFSET -0.034840 -0.062106 0.130323
					CHANNELS 3 Zrotation Yrotation Xrotation
					End Site
					{
						OFFSET 0.000000 0.000000 0.000000
					}
				}
			}
		}
	}
	JOINT lowerback
	{
		OFFSET 0.004439 0.124404 -0.038385
		CHANNELS 3 Zrotation Yrotation Xrotation
		JOINT upperback
		{
			OFFSET 0.004488 0.137956 0.026820
			CHANNELS 3 Zrotation Yrotation Xrotation
			JOINT chest
			{
				OFFSET -0.002265 0.056032 0.002855
				CHANNELS 3 Zrotation Yrotation Xrotation
				JOINT lowerneck
				{
					OFFSET -0.013390 0.211636 -0.033468
					CHANNELS 3 Zrotation Yrotation Xrotation
					JOINT upperneck
					{
						OFFSET 0.010113 0.088937 0.050410
						CHANNELS 3 Zrotation Yrotation Xrotation
						End Site
						{
							OFFSET 0.000000 0.000000 0.000000
						}
					}
				}
				JOINT lclavicle
				{
					OFFSET 0.071702 0.114000 -0.018898
					CHANNELS 3 Zrotation Yrotation Xrotation
					JOINT lshoulder
					{
						OFFSET 0.122921 0.045205 -0.019046
						CHANNELS 3 Zrotation Yrotation Xrotation
						JOINT lelbow
						{
							OFFSET 0.255332 -0.015649 -0.022946
							CHANNELS 3 Zrotation Yrotation Xrotation
							JOINT lwrist
							{
								OFFSET 0.265709 0.012698 -0.007375
								CHANNELS 3 Zrotation Yrotation Xrotation
								End Site
								{
									OFFSET 0.000000 0.000000 0.000000
								}
							}
						}
					}
				}
				JOINT rclavicle
				{
					OFFSET -0.082954 0.112472 -0.023707
					CHANNELS 3 Zrotation Yrotation Xrotation
					JOINT rshoulder
					{
						OFFSET -0.113228 0.046853 -0.008472
						CHANNELS 3 Zrotation Yrotation Xrotation
						JOINT relbow
						{
							OFFSET -0.260127 -0.014369 -0.031269
							CHANNELS 3 Zrotation Yrotation Xrotation
							JOINT rwrist
							{
								OFFSET -0.269108 0.006794 -0.006027
								CHANNELS 3 Zrotation Yrotation Xrotation
								End Site
								{
									OFFSET 0.000000 0.000000 0.000000
								}
							}
						}
					}
				}
			}
		}
	}
}
MOTION
Frames: 7
Frame Time: 0.033333
-1.813996 0.295692 1.025131 90.943334 -0.972183 88.760999 -0.320546 1.925630 3.938735 -3.349780 -10.075977 3.646049 4.293643 8.782776 -13.873370 0.000000 -0.000000 0.000000 -3.925338 -3.433670 -7.291554 0.561028 -2.495926 21.451456 4.087794 -8.153621 -14.271665 0.000000 -0.000000 0.000000 -0.323015 -0.737219 8.621332 -0.657850 -1.755432 -3.285760 -1.516250 -1.472275 2.277218 5.333071 3.740149 -14.058906 1.590399 -4.026677 2.071074 -29.497544 5.697522 -3.023392 -57.884409 -8.081883 9.031773 8.971943 -30.821106 5.261379 -0.205905 -3.068132 -2.495032 30.725209 -1.385113 -3.532291 57.877752 3.539294 13.026339 -14.536629 20.978717 -9.082310 5.063030 2.626549 -3.533526 
-1.814569 0.296724 1.025393 91.320209 -0.710101 88.706579 -0.133357 1.652459 3.790464 -3.320283 -10.039559 3.786114 4.137875 8.748458 -13.689429 0.000000 -0.000000 0.000000 -3.799054 -3.620359 -6.720575 0.581035 -2.792394 20.569832 4.023999 -8.099153 -13.858312 0.000000 -0.000000 0.000000 -0.291219 0.112445 7.883503 -0.508059 -1.299686 -2.590324 -1.140204 -1.883178 2.521005 5.184430 3.640514 -13.559868 1.449825 -3.880424 2.324286 -29.466603 4.868023 -2.230915 -58.602106 -8.505573 9.133968 9.888737 -30.256999 4.625081 -0.365310 -3.489954 -2.758778 30.445760 -1.284826 -3.496414 57.900774 3.645037 12.994528 -14.552046 21.447680 -8.760454 5.264667 2.563418 -4.130116 
-1.814866 0.297300 1.026002 91.500595 -0.530036 88.840471 -0.026755 1.461322 3.542186 -3.289604 -10.073747 3.905841 4.108416 8.764259 -13.613994 0.000000 -0.000000 0.000000 -3.739735 -3.669537 -6.501630 0.758951 -2.880726 19.893018 4.002843 -8.145879 -13.535426 0.000000 -0.000000 0.000000 -0.250025 0.180553 7.718476 -0.412464 -1.111345 -2.915244 -0.968536 -1.606928 2.457820 5.274692 3.413340 -13.103209 1.268948 -3.936602 2.822821 -29.338444 5.275673 -2.445460 -59.003586 -8.253833 9.176905 9.705408 -29.701415 5.042914 -0.569471 -3.022475 -2.473015 30.364986 -1.571359 -3.547023 57.997360 3.671098 13.122354 -14.392230 21.615985 -8.448332 5.448082 2.660386 -3.931138 
-1.815579 0.298471 1.026087 91.876336 -0.481341 88.679623 -0.069342 1.307750 3.567852 -3.234735 -10.163000 4.074505 4.197955 8.587657 -13.719144 0.000000 -0.000000 0.000000 -3.839239 -3.809904 -6.251938 0.838134 -3.083140 19.822766 4.004786 -8.067688 -13.314219 0.000000 -0.000000 0.000000 -0.376091 0.370672 7.752583 -0.315623 -1.101805 -2.795532 -0.758427 -1.542048 2.278865 5.252381 3.785556 -13.126688 1.085226 -3.539635 3.619248 -29.255785 5.490961 -2.194922 -58.953033 -8.065844 9.153091 9.499105 -29.354796 4.938505 -1.442161 -3.236503 -2.295163 30.433163 -1.443131 -3.432880 57.821889 4.156983 13.125767 -13.799132 21.850622 -8.828821 7.546411 2.798241 -4.432061 
-1.816737 0.298934 1.025635 92.023910 -0.491833 88.443753 -0.084764 1.171716 3.723521 -3.283515 -10.115290 4.108062 4.219254 8.594114 -13.661072 0.000000 -0.000000 0.000000 -3.901391 -3.871114 -6.306731 0.740213 -3.256750 20.254678 4.265302 -7.954291 -13.354122 0.000000 -0.000000 0.000000 -0.600807 0.732113 7.659267 -0.213182 -0.971925 -2.205345 -0.551883 -1.680902 2.394957 5.374928 3.810170 -13.351095 0.948969 -3.574770 3.464567 -29.307031 5.142265 -2.018959 -58.800545 -8.222210 9.198481 9.480799 -29.095613 4.560050 -2.001018 -3.362230 -1.945225 30.325858 -1.139430 -3.616652 57.785956 4.487664 13.190569 -13.288486 22.326407 -9.161351 9.299894 2.843361 -5.033193 
-1.817823 0.299634 1.025240 92.286286 -0.615565 88.189149 -0.228804 1.217202 3.895599 -3.338848 -10.359334 4.233591 4.284960 8.546394 -13.745224 0.000000 -0.000000 0.000000 -4.056254 -3.894458 -6.400526 0.649119 -3.366862 20.887802 4.306778 -7.877292 -13.559854 0.000000 -0.000000 0.000000 -0.738164 0.532673 8.249709 -0.332464 -1.112907 -2.387203 -0.609494 -1.464544 2.211924 5.388964 4.224135 -12.952472 1.265770 -3.093825 3.331584 -29.031056 5.189582 -1.818191 -58.419354 -7.710782 8.985597 9.310915 -28.911476 4.471733 -2.538470 -3.320595 -1.861607 30.321645 -0.865552 -3.349183 57.943679 4.649180 13.354397 -12.705571 23.647454 -9.033636 10.808089 2.764308 -5.490993 
-1.819293 0.300232 1.024878 92.556808 -0.697386 87.850156 -0.343559 1.234792 4.107631 -3.375001 -10.590777 4.362713 4.278923 8.498636 -13.789790 0.000000 -0.000000 0.000000 -4.113883 -3.989938 -6.368085 0.499469 -3.395355 21.427106 4.094733 -8.200712 -13.856294 0.000000 -0.000000 0.000000 -0.754330 0.762229 8.512824 -0.383689 -1.101575 -1.925715 -0.606206 -1.692937 2.429139 5.320210 4.366010 -13.509931 1.343833 -3.077471 3.153878 -29.030313 4.513999 -1.676431 -57.978618 -7.533572 8.812617 9.273127 -28.204624 4.315044 -2.424024 -3.453865 -1.736282 30.212287 -0.473055 -3.428188 57.998750 4.726649 13.661596 -12.412466 25.590136 -8.643775 10.810823 3.144409 -5.964500 
